<mxfile host="app.diagrams.net" modified="2023-03-11T17:31:49.116Z" agent="5.0 (Windows NT 10.0; Win64; x64) AppleWebKit/537.36 (KHTML, like Gecko) Chrome/111.0.0.0 Safari/537.36" etag="3tHFSUkqsoYgxVWH5EUE" version="21.0.6" type="github">
  <diagram name="1 oldal" id="XGses4QO7UtyZwa-TRk_">
    <mxGraphModel dx="1068" dy="1110" grid="1" gridSize="10" guides="1" tooltips="1" connect="1" arrows="1" fold="1" page="1" pageScale="1" pageWidth="827" pageHeight="1169" math="0" shadow="0">
      <root>
        <mxCell id="0" />
        <mxCell id="1" parent="0" />
        <mxCell id="yLD47ECBF6TCEiFN1VzZ-1" value="View Pipenetwork" style="ellipse;whiteSpace=wrap;html=1;" vertex="1" parent="1">
          <mxGeometry x="344" y="40" width="140" height="70" as="geometry" />
        </mxCell>
        <mxCell id="yLD47ECBF6TCEiFN1VzZ-2" value="Move Player" style="ellipse;whiteSpace=wrap;html=1;" vertex="1" parent="1">
          <mxGeometry x="650" y="40" width="140" height="70" as="geometry" />
        </mxCell>
        <mxCell id="yLD47ECBF6TCEiFN1VzZ-3" value="Change Pump direction" style="ellipse;whiteSpace=wrap;html=1;" vertex="1" parent="1">
          <mxGeometry x="40" y="40" width="140" height="70" as="geometry" />
        </mxCell>
        <mxCell id="yLD47ECBF6TCEiFN1VzZ-24" style="edgeStyle=orthogonalEdgeStyle;rounded=0;orthogonalLoop=1;jettySize=auto;html=1;entryX=0.5;entryY=0;entryDx=0;entryDy=0;" edge="1" parent="1" source="yLD47ECBF6TCEiFN1VzZ-4" target="yLD47ECBF6TCEiFN1VzZ-3">
          <mxGeometry relative="1" as="geometry" />
        </mxCell>
        <mxCell id="yLD47ECBF6TCEiFN1VzZ-25" style="edgeStyle=orthogonalEdgeStyle;rounded=0;orthogonalLoop=1;jettySize=auto;html=1;" edge="1" parent="1" source="yLD47ECBF6TCEiFN1VzZ-4" target="yLD47ECBF6TCEiFN1VzZ-1">
          <mxGeometry relative="1" as="geometry" />
        </mxCell>
        <mxCell id="yLD47ECBF6TCEiFN1VzZ-26" style="edgeStyle=orthogonalEdgeStyle;rounded=0;orthogonalLoop=1;jettySize=auto;html=1;entryX=0.5;entryY=0;entryDx=0;entryDy=0;" edge="1" parent="1" source="yLD47ECBF6TCEiFN1VzZ-4" target="yLD47ECBF6TCEiFN1VzZ-2">
          <mxGeometry relative="1" as="geometry" />
        </mxCell>
        <mxCell id="yLD47ECBF6TCEiFN1VzZ-4" value="Player" style="shape=umlActor;verticalLabelPosition=bottom;verticalAlign=top;html=1;outlineConnect=0;fontStyle=2" vertex="1" parent="1">
          <mxGeometry x="399" y="300" width="30" height="60" as="geometry" />
        </mxCell>
        <mxCell id="yLD47ECBF6TCEiFN1VzZ-22" style="edgeStyle=orthogonalEdgeStyle;rounded=0;orthogonalLoop=1;jettySize=auto;html=1;entryX=0.5;entryY=0.5;entryDx=0;entryDy=0;entryPerimeter=0;" edge="1" parent="1" source="yLD47ECBF6TCEiFN1VzZ-8" target="yLD47ECBF6TCEiFN1VzZ-4">
          <mxGeometry relative="1" as="geometry" />
        </mxCell>
        <mxCell id="yLD47ECBF6TCEiFN1VzZ-8" value="Technician" style="shape=umlActor;verticalLabelPosition=bottom;verticalAlign=top;html=1;outlineConnect=0;" vertex="1" parent="1">
          <mxGeometry x="180" y="200" width="30" height="60" as="geometry" />
        </mxCell>
        <mxCell id="yLD47ECBF6TCEiFN1VzZ-23" style="edgeStyle=orthogonalEdgeStyle;rounded=0;orthogonalLoop=1;jettySize=auto;html=1;entryX=0.5;entryY=0.5;entryDx=0;entryDy=0;entryPerimeter=0;" edge="1" parent="1" source="yLD47ECBF6TCEiFN1VzZ-9" target="yLD47ECBF6TCEiFN1VzZ-4">
          <mxGeometry relative="1" as="geometry">
            <mxPoint x="430" y="230" as="targetPoint" />
          </mxGeometry>
        </mxCell>
        <mxCell id="yLD47ECBF6TCEiFN1VzZ-9" value="Saboteur" style="shape=umlActor;verticalLabelPosition=bottom;verticalAlign=top;html=1;outlineConnect=0;" vertex="1" parent="1">
          <mxGeometry x="650" y="200" width="30" height="60" as="geometry" />
        </mxCell>
        <mxCell id="yLD47ECBF6TCEiFN1VzZ-10" value="&amp;lt;&amp;lt;internal&amp;gt;&amp;gt; &lt;br&gt;Controller" style="shape=umlActor;verticalLabelPosition=bottom;verticalAlign=top;html=1;outlineConnect=0;" vertex="1" parent="1">
          <mxGeometry x="399" y="600" width="30" height="60" as="geometry" />
        </mxCell>
        <mxCell id="yLD47ECBF6TCEiFN1VzZ-11" value="Repair" style="ellipse;whiteSpace=wrap;html=1;" vertex="1" parent="1">
          <mxGeometry x="40" y="400" width="140" height="70" as="geometry" />
        </mxCell>
        <mxCell id="yLD47ECBF6TCEiFN1VzZ-12" value="Control Waterflow" style="ellipse;whiteSpace=wrap;html=1;" vertex="1" parent="1">
          <mxGeometry x="210" y="470" width="140" height="70" as="geometry" />
        </mxCell>
        <mxCell id="yLD47ECBF6TCEiFN1VzZ-13" value="Use Case" style="ellipse;whiteSpace=wrap;html=1;" vertex="1" parent="1">
          <mxGeometry x="510" y="470" width="140" height="70" as="geometry" />
        </mxCell>
        <mxCell id="yLD47ECBF6TCEiFN1VzZ-14" value="Hole Pipe" style="ellipse;whiteSpace=wrap;html=1;" vertex="1" parent="1">
          <mxGeometry x="650" y="400" width="140" height="70" as="geometry" />
        </mxCell>
      </root>
    </mxGraphModel>
  </diagram>
</mxfile>
